<svg xmlns="http://www.w3.org/2000/svg" viewBox="0 0 77 77"><defs><style>.a{fill:#eaeff7;}</style></defs><g transform="translate(-470 -4250)"><path class="a" d="M38.5,77A38.5,38.5,0,1,1,77,38.5,38.544,38.544,0,0,1,38.5,77Zm0-74.667A36.167,36.167,0,1,0,74.667,38.5,36.207,36.207,0,0,0,38.5,2.333Z" transform="translate(470 4250)"/><path class="a" d="M29.512,70.353a38.222,38.222,0,0,1-22.281-7.14A1.166,1.166,0,0,1,7.5,61.169c9.674-3.582,11.235-6.489,11.235-12.061a4.042,4.042,0,0,0-.929-2.833,15.37,15.37,0,0,1-2.634-6.858c-.112-.593-.208-.639-.737-.9-1.414-.681-2.714-1.661-3.054-6.132A5.4,5.4,0,0,1,12.747,28.4c-.135-.77-.357-2.1-.565-3.544-1.057-6.48-1.1-14.415,8.01-18.1,7.943-3.22,14.282-1.461,16.273.637a10.448,10.448,0,0,1,7.574,3.355c3.892,4.527,2.653,14.847,2.228,17.645A5.234,5.234,0,0,1,47.642,32.3c-.341,4.559-1.64,5.542-3.057,6.221-.532.257-.628.3-.737.9a15.377,15.377,0,0,1-2.632,6.858,4.027,4.027,0,0,0-.929,2.833c0,5.572,1.561,8.479,11.235,12.061a1.166,1.166,0,0,1,.271,2.044A38.222,38.222,0,0,1,29.512,70.353ZM10.419,62.539a36,36,0,0,0,38.187,0C40.5,59.212,37.954,55.856,37.954,49.111a6.26,6.26,0,0,1,1.337-4.151A13.232,13.232,0,0,0,41.557,39a3.173,3.173,0,0,1,2.018-2.574c.726-.348,1.472-.707,1.736-4.207,0-1.783-.8-2.268-.835-2.287a1.243,1.243,0,0,1-.616-1.253c.579-3.1,1.531-12.773-1.589-16.406a8.161,8.161,0,0,0-6.127-2.52,1.942,1.942,0,0,1-.313-.037,1.862,1.862,0,0,1-.973-.611c-.635-1.087-6.162-3.274-13.79-.187-7.539,3.052-7.555,9.595-6.578,15.591.322,2.233.674,4.163.677,4.172a1.167,1.167,0,0,1-.66,1.269h0c.007,0-.791.488-.791,2.352.261,3.409,1.01,3.771,1.734,4.118a3.175,3.175,0,0,1,2.021,2.574,13.211,13.211,0,0,0,2.263,5.964,6.247,6.247,0,0,1,1.339,4.151C21.073,55.859,18.527,59.214,10.419,62.539Z" transform="translate(478.988 4256.646)"/></g></svg>