<svg xmlns="http://www.w3.org/2000/svg" xmlns:xlink="http://www.w3.org/1999/xlink" width="62.222" height="60" viewBox="0 0 62.222 60"><defs><style>.a{fill:none;}.b{clip-path:url(#a);}.c{fill:#afccf4;}.d{fill:#fff;}.e{fill:#447ce1;}</style><clipPath id="a"><path class="a" d="M0-216H62.222v60H0Z" transform="translate(0 216)"/></clipPath></defs><g transform="translate(0 216)"><g class="b" transform="translate(0 -216)"><path class="c" d="M-161.778-142.278A5.278,5.278,0,0,1-167.056-137h-51.667A5.278,5.278,0,0,1-224-142.278v-49.444A5.278,5.278,0,0,1-218.722-197h51.667a5.278,5.278,0,0,1,5.278,5.278Z" transform="translate(224 197)"/><g transform="translate(9.444 11.944)"><path class="d" d="M-111.944-58.475a6.4,6.4,0,0,1-6.4,6.4H-148.6a6.4,6.4,0,0,1-6.4-6.4V-74.566a6.4,6.4,0,0,1,6.4-6.4h30.258a6.4,6.4,0,0,1,6.4,6.4Z" transform="translate(155 80.965)"/></g><g transform="translate(16.967 20)"><path class="e" d="M-68.3-12.278H-92.209a2.36,2.36,0,0,1-2.357-2.361A2.36,2.36,0,0,1-92.209-17H-68.3a2.36,2.36,0,0,1,2.357,2.361A2.361,2.361,0,0,1-68.3-12.278" transform="translate(94.566 17)"/></g><g transform="translate(16.966 29.167)"><path class="e" d="M-53.413-12.278H-71.6a2.36,2.36,0,0,1-2.357-2.361A2.36,2.36,0,0,1-71.6-17h18.186a2.36,2.36,0,0,1,2.357,2.361,2.36,2.36,0,0,1-2.357,2.361" transform="translate(73.956 17)"/></g><g transform="translate(16.667 38.611)"><path class="d" d="M0,0V11.389L11.694,0Z"/></g></g></g></svg>