<svg xmlns="http://www.w3.org/2000/svg" xmlns:xlink="http://www.w3.org/1999/xlink" width="65.668" height="65" viewBox="0 0 65.668 65"><defs><style>.a{fill:none;}.b{fill:#afccf4;}.c{clip-path:url(#a);}.d{fill:#447ce1;}.e{fill:#fff;fill-rule:evenodd;}</style><clipPath id="a"><path class="a" d="M0-206.26H65.668v65H0Z" transform="translate(0 206.26)"/></clipPath></defs><g transform="translate(0 206.26)"><g transform="translate(0 -206.26)"><path class="b" d="M-71.356,0l-7.488,7.67-10.446-2.4-2.153,10.5-10.088,3.625,3.866,10-6.526,8.5,8.657,6.32-.893,10.682,10.7.636L-80.7,65l9.345-5.25L-62.011,65l5.024-9.469,10.7-.636-.893-10.682,8.657-6.32-6.526-8.5,3.866-10-10.087-3.625-2.153-10.5-10.446,2.4Z" transform="translate(104.19)"/></g><g class="c" transform="translate(0 -206.26)"><g transform="translate(11.93 11.596)"><path class="d" d="M-90.858-45.429a20.9,20.9,0,0,1-20.9,20.9,20.9,20.9,0,0,1-20.9-20.9,20.9,20.9,0,0,1,20.9-20.9,20.9,20.9,0,0,1,20.9,20.9" transform="translate(132.666 66.333)"/></g><g transform="translate(21.767 18.441)"><path class="e" d="M-5.6-40.582c0-1.225-.03-2.451.009-3.675A6.889,6.889,0,0,0-6.246-47.2a41.87,41.87,0,0,1-1.59-3.929,7.412,7.412,0,0,1,.43-5.5A4,4,0,0,1-2.52-59.146c1.311.229,2.612.515,3.929.7A17.115,17.115,0,0,0,7.5-58.987c.371-.081.746-.156,1.123-.2a3.874,3.874,0,0,1,4.486,2.4A7.619,7.619,0,0,1,13.5-50.7c-.4,1.175-.936,2.309-1.446,3.445a7.175,7.175,0,0,0-.657,3.319c.108,2.45.268,4.908.154,7.351a36.551,36.551,0,0,1-.894,5.424,1.714,1.714,0,0,1-1.168,1.531,1.491,1.491,0,0,1-1.937-1.1A35.316,35.316,0,0,1,6.5-34.371c-.372-1.5-.625-3.022-1.044-4.5a5.546,5.546,0,0,0-1.011-1.876,1.953,1.953,0,0,0-3.127-.008A7.267,7.267,0,0,0-.106-37.411c-.385,1.731-.723,3.474-1.131,5.2a8.781,8.781,0,0,1-.669,1.773,1.433,1.433,0,0,1-1.428.862,1.282,1.282,0,0,1-1.31-1,32.318,32.318,0,0,1-1-4.691c-.172-1.755-.039-3.541-.039-5.314Z" transform="translate(8.176 59.255)"/></g></g></g></svg>