<svg xmlns="http://www.w3.org/2000/svg" xmlns:xlink="http://www.w3.org/1999/xlink" width="60.411" height="58.253" viewBox="0 0 60.411 58.253"><defs><style>.a{fill:none;}.b{clip-path:url(#a);}.c{fill:#afccf4;}.d{fill:#447ce1;fill-rule:evenodd;}.e{fill:#fff;}</style><clipPath id="a"><path class="a" d="M0-216H60.411v58.254H0Z" transform="translate(0 216)"/></clipPath></defs><g class="b" transform="translate(0 0)"><path class="c" d="M-163.589-143.871a5.124,5.124,0,0,1-5.124,5.124h-50.163A5.124,5.124,0,0,1-224-143.871v-48.005A5.124,5.124,0,0,1-218.876-197h50.163a5.124,5.124,0,0,1,5.124,5.124Z" transform="translate(224 197)"/><g transform="translate(11.04 12.375)"><path class="d" d="M-10.937-79.259c0-1.4-.034-2.808.01-4.209a7.9,7.9,0,0,0-.751-3.37,47.845,47.845,0,0,1-1.822-4.5,8.488,8.488,0,0,1,.493-6.3c1.19-2.5,2.883-3.362,5.6-2.886,1.5.263,2.992.59,4.5.807a19.6,19.6,0,0,0,6.978-.624c.425-.092.854-.179,1.286-.231a4.437,4.437,0,0,1,5.138,2.743,8.724,8.724,0,0,1,.452,6.98C10.48-89.5,9.872-88.2,9.288-86.9a8.211,8.211,0,0,0-.753,3.8c.124,2.806.308,5.621.176,8.42a41.934,41.934,0,0,1-1.024,6.213,1.964,1.964,0,0,1-1.338,1.753A1.709,1.709,0,0,1,4.13-67.971a40.534,40.534,0,0,1-1.2-4.174c-.426-1.712-.716-3.461-1.2-5.157A6.344,6.344,0,0,0,.571-79.45a2.237,2.237,0,0,0-3.582-.008,8.332,8.332,0,0,0-1.634,3.832c-.441,1.983-.828,3.979-1.3,5.956a10.064,10.064,0,0,1-.767,2.03,1.639,1.639,0,0,1-1.635.987,1.467,1.467,0,0,1-1.5-1.145,36.937,36.937,0,0,1-1.149-5.374c-.2-2.01-.045-4.056-.045-6.087Z" transform="translate(13.889 100.648)"/></g><g transform="translate(42.342 44.499)"><path class="e" d="M-22.64-10.224h-6.473A1.888,1.888,0,0,1-31-12.112,1.888,1.888,0,0,1-29.112-14h6.473a1.888,1.888,0,0,1,1.888,1.888,1.888,1.888,0,0,1-1.888,1.888" transform="translate(31 14)"/></g><g transform="translate(42.342 36.139)"><path class="e" d="M-22.64-10.224h-6.473A1.888,1.888,0,0,1-31-12.112,1.888,1.888,0,0,1-29.112-14h6.473a1.888,1.888,0,0,1,1.888,1.888,1.888,1.888,0,0,1-1.888,1.888" transform="translate(31 14)"/></g></g></svg>