<svg xmlns="http://www.w3.org/2000/svg" xmlns:xlink="http://www.w3.org/1999/xlink" width="49.167" height="60" viewBox="0 0 49.167 60"><defs><style>.a{fill:none;}.b{clip-path:url(#a);}.c{fill:#afccf4;}.d{fill:#447ce1;}.e{fill:#fff;fill-rule:evenodd;}</style><clipPath id="a"><path class="a" d="M0-216H49.167v60H0Z" transform="translate(0 216)"/></clipPath></defs><g transform="translate(0 216)"><g class="b" transform="translate(0 -216)"><path class="c" d="M-127.833-142.278A5.278,5.278,0,0,1-133.111-137h-38.611A5.278,5.278,0,0,1-177-142.278v-49.444A5.278,5.278,0,0,1-171.722-197h38.611a5.278,5.278,0,0,1,5.278,5.278Z" transform="translate(177 197)"/><g transform="translate(9.583 40.278)"><path class="d" d="M-72.944-10.111H-99.056A1.944,1.944,0,0,1-101-12.056,1.944,1.944,0,0,1-99.056-14h26.111A1.944,1.944,0,0,1-71-12.056a1.944,1.944,0,0,1-1.944,1.944" transform="translate(101 14)"/></g><g transform="translate(9.583 47.778)"><path class="d" d="M-72.944-10.111H-99.056A1.944,1.944,0,0,1-101-12.056,1.944,1.944,0,0,1-99.056-14h26.111A1.944,1.944,0,0,1-71-12.056a1.944,1.944,0,0,1-1.944,1.944" transform="translate(101 14)"/></g><g transform="translate(14.828 7.067)"><path class="e" d="M-5.9-42.8c0-1.08-.026-2.161.008-3.239a6.074,6.074,0,0,0-.578-2.593,36.9,36.9,0,0,1-1.4-3.463A6.534,6.534,0,0,1-7.5-56.939,3.528,3.528,0,0,1-3.19-59.16c1.156.2,2.3.454,3.463.621a15.087,15.087,0,0,0,5.369-.48c.327-.071.657-.138.99-.178a3.414,3.414,0,0,1,3.954,2.111,6.716,6.716,0,0,1,.348,5.372c-.356,1.036-.825,2.035-1.274,3.036a6.323,6.323,0,0,0-.579,2.925c.1,2.159.237,4.326.136,6.479a32.23,32.23,0,0,1-.788,4.781A1.511,1.511,0,0,1,7.4-33.143,1.315,1.315,0,0,1,5.69-34.11a31.154,31.154,0,0,1-.927-3.212c-.328-1.318-.551-2.663-.92-3.968a4.888,4.888,0,0,0-.891-1.654A1.721,1.721,0,0,0,.195-42.95,6.406,6.406,0,0,0-1.063-40c-.34,1.526-.637,3.062-1,4.583a7.737,7.737,0,0,1-.59,1.563,1.263,1.263,0,0,1-1.259.759,1.129,1.129,0,0,1-1.155-.881,28.486,28.486,0,0,1-.884-4.135c-.152-1.547-.035-3.121-.035-4.684Z" transform="translate(8.176 59.256)"/></g></g></g></svg>