<svg xmlns="http://www.w3.org/2000/svg" xmlns:xlink="http://www.w3.org/1999/xlink" width="226" height="44.178" viewBox="0 0 226 44.178"><defs><style>.a{fill:#fff;}.b{fill:#fff;}.c{clip-path:url(#a);}.d{clip-path:url(#b);}</style><clipPath id="a"><path class="a" d="M0-124.035H36v44.178H0Z" transform="translate(0 124.035)"/></clipPath><clipPath id="b"><path class="b" d="M0-29.013H177v18.161H0Z" transform="translate(0 29.013)"/></clipPath></defs><g transform="translate(-220 -28)"><g transform="translate(220 152.035)"><g class="c" transform="translate(0 -124.035)"><g transform="translate(0 0)"><path class="a" d="M-51-56.341a12.319,12.319,0,0,1-10.212,5.678,12.318,12.318,0,0,1-10.213-5.678,2.159,2.159,0,0,1,.609-2.993,2.159,2.159,0,0,1,2.993.61,7.911,7.911,0,0,0,6.611,3.742,7.911,7.911,0,0,0,6.61-3.742,2.16,2.16,0,0,1,2.993-.61A2.159,2.159,0,0,1-51-56.341M-63.367-77.922a2.288,2.288,0,0,1,2.336-2.256h7.423a2.157,2.157,0,0,1,2.157,2.156,2.157,2.157,0,0,1-2.157,2.157h-5.446v11.879h0a2.157,2.157,0,0,1-2.157,2.157,2.157,2.157,0,0,1-2.156-2.157Zm17.956-9.587h-31.6a2.233,2.233,0,0,0-2.2,2.265v23.8A18.11,18.11,0,0,0-60.844-43.335,17.891,17.891,0,0,0-43.211-61.121V-85.244a2.233,2.233,0,0,0-2.2-2.265" transform="translate(79.211 87.509)"/></g></g></g><g class="d" transform="translate(269 41)"><g transform="translate(0 0.299)"><path class="b" d="M-6.055,0h-7.859a2.227,2.227,0,0,0-2.274,2.2V15.665a2.221,2.221,0,0,0,2.248,2.2,2.252,2.252,0,0,0,2.3-2.2V4.032h5.583A1.987,1.987,0,0,0-4.116,2.015,1.986,1.986,0,0,0-6.055,0" transform="translate(16.188)"/></g><g transform="translate(12.556 0.299)"><path class="b" d="M-8.419,0h-9.359a2.245,2.245,0,0,0-2.275,2.2V5.765a23.024,23.024,0,0,1-.517,5.711,7.086,7.086,0,0,1-1.189,2.3,3.373,3.373,0,0,0-.751,1.86,2.235,2.235,0,0,0,2.275,2.223c1.216,0,2.2-.774,2.974-2.35a15.887,15.887,0,0,0,1.345-4.628A33.5,33.5,0,0,0-15.5,5.765V4.032h4.807V15.665a2.223,2.223,0,0,0,2.25,2.2,2.252,2.252,0,0,0,2.3-2.2V2.2A2.246,2.246,0,0,0-8.419,0" transform="translate(22.509)"/></g><g transform="translate(53.486 0.299)"><path class="b" d="M-3.723-8.311H-5.4V-11.75h1.319c1.784,0,2.662.569,2.662,1.706,0,1.268-.853,1.733-2.3,1.733M.128-14.853a8.675,8.675,0,0,0-2.637-.515c-.361-.027-.775-.027-1.214-.027H-5.4v-2.792H.179A1.986,1.986,0,0,0,2.118-20.2,1.986,1.986,0,0,0,.179-22.219H-7.678a2.228,2.228,0,0,0-2.275,2.2V-6.811a2.229,2.229,0,0,0,2.275,2.2h4.394c3.05,0,6.516-1.216,6.516-5.429,0-2.816-1.4-4.213-3.1-4.809" transform="translate(9.953 22.219)"/></g><g transform="translate(120.085 0.299)"><path class="b" d="M-8.343,0h-12a2.008,2.008,0,0,0-1.966,2.015,2.009,2.009,0,0,0,1.966,2.017h3.723V15.665a2.243,2.243,0,0,0,2.275,2.2,2.28,2.28,0,0,0,2.275-2.2V4.032h3.723A2.009,2.009,0,0,0-6.38,2.015,2.008,2.008,0,0,0-8.343,0" transform="translate(22.305)"/></g><g transform="translate(158.516 0.066)"><path class="b" d="M-9.332,0a2.663,2.663,0,0,0-2.483,1.422l-3.9,6.979L-19.6,1.422A2.659,2.659,0,0,0-22.077,0a2.722,2.722,0,0,0-2.871,2.792V15.977a2.1,2.1,0,0,0,2.2,2.118,2.1,2.1,0,0,0,2.2-2.118V8.143l2.637,4.628a2.489,2.489,0,0,0,2.224,1.395,2.488,2.488,0,0,0,2.223-1.395l2.611-4.628v7.834a2.108,2.108,0,0,0,2.171,2.118,2.121,2.121,0,0,0,2.223-2.118V2.792A2.75,2.75,0,0,0-9.332,0" transform="translate(24.948 0)"/></g><g transform="translate(92.074 6.729)"><path class="b" d="M-1.678,0A2.807,2.807,0,0,0-4.485,2.807,2.808,2.808,0,0,0-1.678,5.615,2.807,2.807,0,0,0,1.13,2.807,2.807,2.807,0,0,0-1.678,0" transform="translate(4.485)"/></g><g transform="translate(102.42 0)"><path class="b" d="M-7.3-7.563a4.761,4.761,0,0,1-3.149,1.187,4.773,4.773,0,0,1-4.768-4.768,4.772,4.772,0,0,1,4.768-4.768,4.722,4.722,0,0,1,2.878.966,2.153,2.153,0,0,0,3.016-.414,2.153,2.153,0,0,0-.414-3.016,9,9,0,0,0-5.481-1.842,9.084,9.084,0,0,0-9.074,9.074A9.084,9.084,0,0,0-10.452-2.07,9.066,9.066,0,0,0-4.46-4.329a2.153,2.153,0,0,0,.195-3.038A2.153,2.153,0,0,0-7.3-7.563" transform="translate(19.526 20.218)"/></g><g transform="translate(137.145 0.018)"><path class="b" d="M-5.421-8.206a4.667,4.667,0,0,1-4.661-4.661,4.667,4.667,0,0,1,4.661-4.661A4.667,4.667,0,0,1-.759-12.868,4.667,4.667,0,0,1-5.421-8.206m0-13.733a9.071,9.071,0,0,0-9.071,9.071A9.071,9.071,0,0,0-5.421-3.8a9.071,9.071,0,0,0,9.071-9.071,9.071,9.071,0,0,0-9.071-9.071" transform="translate(14.492 21.939)"/></g><g transform="translate(32.181 0.018)"><path class="b" d="M-5.421-8.206a4.667,4.667,0,0,1-4.661-4.661,4.667,4.667,0,0,1,4.661-4.661A4.667,4.667,0,0,1-.759-12.868,4.667,4.667,0,0,1-5.421-8.206m0-13.733a9.071,9.071,0,0,0-9.071,9.071A9.071,9.071,0,0,0-5.421-3.8a9.072,9.072,0,0,0,9.072-9.071,9.072,9.072,0,0,0-9.072-9.071" transform="translate(14.492 21.939)"/></g><g transform="translate(69.2 0.018)"><path class="b" d="M-5.421-8.206a4.667,4.667,0,0,1-4.661-4.661,4.667,4.667,0,0,1,4.661-4.661A4.667,4.667,0,0,1-.759-12.868,4.667,4.667,0,0,1-5.421-8.206m0-13.733a9.071,9.071,0,0,0-9.071,9.071A9.071,9.071,0,0,0-5.421-3.8a9.071,9.071,0,0,0,9.071-9.071,9.071,9.071,0,0,0-9.071-9.071" transform="translate(14.492 21.939)"/></g></g></g></svg>