<svg xmlns="http://www.w3.org/2000/svg" width="149" height="149" viewBox="0 0 149 149"><defs><style>.a{fill:#4e79c7;}</style></defs><g transform="translate(-470 -4250)"><path class="a" d="M74.5,149A74.5,74.5,0,1,1,149,74.5,74.585,74.585,0,0,1,74.5,149Zm0-144.485A69.985,69.985,0,1,0,144.485,74.5,70.063,70.063,0,0,0,74.5,4.515Z" transform="translate(470 4250)"/><path class="a" d="M50.805,131.477A73.962,73.962,0,0,1,7.69,117.661a2.256,2.256,0,0,1,.524-3.955c18.72-6.931,21.74-12.557,21.74-23.339a7.821,7.821,0,0,0-1.8-5.481c-1.531-2.23-3.626-5.287-5.1-13.27-.217-1.147-.4-1.237-1.427-1.734-2.736-1.318-5.251-3.215-5.91-11.866,0-4.19,1.445-6.506,2.641-7.712-.262-1.49-.691-4.059-1.093-6.859-2.045-12.539-2.136-27.895,15.5-35.033C48.141,2.181,60.409,5.586,64.26,9.645c2.727.086,9.762.8,14.656,6.493,7.531,8.759,5.134,28.73,4.312,34.144,1.2,1.178,2.659,3.463,2.659,7.563-.659,8.823-3.174,10.723-5.915,12.037-1.029.5-1.215.582-1.427,1.734-1.472,7.983-3.562,11.04-5.093,13.27a7.792,7.792,0,0,0-1.8,5.481c0,10.782,3.021,16.408,21.74,23.339a2.256,2.256,0,0,1,.524,3.955A73.962,73.962,0,0,1,50.805,131.477ZM13.858,116.356a69.658,69.658,0,0,0,73.895,0c-15.686-6.439-20.612-12.931-20.612-25.985a12.113,12.113,0,0,1,2.587-8.032c1.373-2,3.079-4.5,4.384-11.541a6.14,6.14,0,0,1,3.906-4.98c1.4-.673,2.849-1.368,3.359-8.141,0-3.45-1.553-4.389-1.616-4.425a2.406,2.406,0,0,1-1.192-2.425c1.12-6,2.962-24.716-3.075-31.746-4.122-4.8-10.62-4.926-11.857-4.876a3.758,3.758,0,0,1-.605-.072,3.6,3.6,0,0,1-1.883-1.183c-1.228-2.1-11.925-6.335-26.685-.361-14.588,5.906-14.62,18.566-12.728,30.17.623,4.321,1.3,8.055,1.309,8.073a2.258,2.258,0,0,1-1.278,2.456h0c.014,0-1.531.944-1.531,4.551.506,6.6,1.955,7.3,3.355,7.969a6.143,6.143,0,0,1,3.91,4.98c1.3,7.044,3.007,9.536,4.38,11.541a12.088,12.088,0,0,1,2.592,8.032C34.474,103.429,29.548,109.922,13.858,116.356Z" transform="translate(493.695 4267.522)"/></g></svg>