<svg xmlns="http://www.w3.org/2000/svg" width="25" height="20" viewBox="0 0 25 20"><defs><style>.a{fill:#426ab3;}</style></defs><g transform="translate(0 -10)"><g transform="translate(0 10)"><path class="a" d="M12.5,17.5a3.75,3.75,0,1,0,3.75,3.75A3.75,3.75,0,0,0,12.5,17.5Zm10-3.75h-3a1.113,1.113,0,0,1-.987-.711l-.776-2.327A1.114,1.114,0,0,0,16.75,10H8.25a1.113,1.113,0,0,0-.987.712l-.775,2.327a1.114,1.114,0,0,1-.987.711h-3A2.507,2.507,0,0,0,0,16.25V27.5A2.507,2.507,0,0,0,2.5,30h20A2.507,2.507,0,0,0,25,27.5V16.25A2.507,2.507,0,0,0,22.5,13.75ZM12.5,27.5a6.25,6.25,0,1,1,6.25-6.25A6.25,6.25,0,0,1,12.5,27.5ZM21.625,18a.875.875,0,1,1,.875-.875A.875.875,0,0,1,21.625,18Z" transform="translate(0 -10)"/></g></g></svg>