<svg xmlns="http://www.w3.org/2000/svg" width="43.296" height="64.181" viewBox="0 0 43.296 64.181"><defs><style>.a{fill:#afccf4;fill-rule:evenodd;}.b{fill:#76a2f2;}</style></defs><g transform="translate(-788 -861.819)"><path class="a" d="M-15.574-112.86c0-2.063-.05-4.127.015-6.188a11.617,11.617,0,0,0-1.1-4.954,70.522,70.522,0,0,1-2.679-6.616,12.48,12.48,0,0,1,.723-9.26c1.75-3.67,4.238-4.943,8.231-4.242,2.207.387,4.4.867,6.615,1.186,3.481.5,6.876-.185,10.258-.918.625-.136,1.254-.263,1.89-.34,3.674-.447,5.884.707,7.554,4.032a12.829,12.829,0,0,1,.665,10.262c-.682,1.979-1.576,3.888-2.435,5.8a12.063,12.063,0,0,0-1.107,5.588c.182,4.124.452,8.264.259,12.377A61.607,61.607,0,0,1,11.805-97,2.886,2.886,0,0,1,9.839-94.42a2.512,2.512,0,0,1-3.263-1.846A59.65,59.65,0,0,1,4.8-102.4c-.626-2.517-1.052-5.088-1.757-7.58a9.344,9.344,0,0,0-1.7-3.159,3.288,3.288,0,0,0-5.267-.012,12.241,12.241,0,0,0-2.4,5.633c-.648,2.915-1.217,5.849-1.9,8.756a14.818,14.818,0,0,1-1.127,2.984,2.411,2.411,0,0,1-2.4,1.451,2.157,2.157,0,0,1-2.207-1.683,54.3,54.3,0,0,1-1.689-7.9c-.29-2.956-.066-5.963-.066-8.948Z" transform="translate(807.912 1020.305)"/><path class="b" d="M-41.75-19.7a4.778,4.778,0,0,1-4.773-4.773.647.647,0,0,0-.647-.647.647.647,0,0,0-.647.647A4.778,4.778,0,0,1-52.59-19.7a.647.647,0,0,0-.647.647.647.647,0,0,0,.647.647,4.778,4.778,0,0,1,4.772,4.772.647.647,0,0,0,.647.647.647.647,0,0,0,.647-.647A4.778,4.778,0,0,1-41.75-18.4a.647.647,0,0,0,.647-.647.647.647,0,0,0-.647-.647" transform="translate(853.984 886.938)"/><path class="b" d="M-32.2-15.192a8.751,8.751,0,0,1-8.741-8.741,1.186,1.186,0,0,0-1.186-1.186,1.185,1.185,0,0,0-1.186,1.186,8.751,8.751,0,0,1-8.741,8.741,1.185,1.185,0,0,0-1.186,1.186,1.185,1.185,0,0,0,1.186,1.186A8.751,8.751,0,0,1-43.311-4.08a1.185,1.185,0,0,0,1.186,1.186A1.186,1.186,0,0,0-40.939-4.08,8.751,8.751,0,0,1-32.2-12.821a1.185,1.185,0,0,0,1.186-1.186A1.185,1.185,0,0,0-32.2-15.192" transform="translate(862.309 894.894)"/></g></svg>