<svg xmlns="http://www.w3.org/2000/svg" width="44.536" height="50" viewBox="0 0 44.536 50"><defs><style>.a{fill:#afccf4;fill-rule:evenodd;}.b{fill:#76a2f2;}.c{fill:#fff;}.d{fill:none;}</style></defs><g transform="translate(-302 -1491.461)"><g transform="translate(302 1491.461)"><path class="a" d="M-15.574-112.86c0-2.063-.05-4.127.015-6.188a11.617,11.617,0,0,0-1.1-4.954,70.522,70.522,0,0,1-2.679-6.616,12.48,12.48,0,0,1,.723-9.26c1.75-3.67,4.238-4.943,8.231-4.242,2.207.387,4.4.867,6.615,1.186,3.481.5,6.876-.185,10.258-.918.625-.136,1.254-.263,1.89-.34,3.674-.447,5.884.707,7.554,4.032a12.829,12.829,0,0,1,.665,10.262c-.682,1.979-1.576,3.888-2.435,5.8a12.063,12.063,0,0,0-1.107,5.588c.182,4.124.452,8.264.259,12.377A61.607,61.607,0,0,1,11.805-97,2.886,2.886,0,0,1,9.839-94.42a2.512,2.512,0,0,1-3.263-1.846A59.65,59.65,0,0,1,4.8-102.4c-.626-2.517-1.052-5.088-1.757-7.58a9.344,9.344,0,0,0-1.7-3.159,3.288,3.288,0,0,0-5.267-.012,12.241,12.241,0,0,0-2.4,5.633c-.648,2.915-1.217,5.849-1.9,8.756a14.818,14.818,0,0,1-1.127,2.984,2.411,2.411,0,0,1-2.4,1.451,2.157,2.157,0,0,1-2.207-1.683,54.3,54.3,0,0,1-1.689-7.9c-.29-2.956-.066-5.963-.066-8.948Z" transform="translate(19.913 144.305)"/></g><g transform="translate(319.761 1503.637)"><path class="b" d="M-17.339-2.961,3.78,18.158A2.833,2.833,0,0,1-.226,22.164L-21.345,1.045a2.832,2.832,0,0,1,.005-4,2.831,2.831,0,0,1,4-.005" transform="translate(22.17 3.787)"/></g><g transform="translate(313.751 1497.627)"><path class="c" d="M-50.065-8.59a8.171,8.171,0,0,1,0,11.555,8.171,8.171,0,0,1-11.556,0,8.171,8.171,0,0,1,0-11.555,8.171,8.171,0,0,1,11.556,0" transform="translate(64.014 10.983)"/></g><path class="d" d="M0-229.461H44.536v50H0Z" transform="translate(302 1720.922)"/></g></svg>