<svg xmlns="http://www.w3.org/2000/svg" xmlns:xlink="http://www.w3.org/1999/xlink" width="50.296" height="50" viewBox="0 0 50.296 50"><defs><style>.a{fill:none;}.b{clip-path:url(#a);}.c{fill:#afccf4;fill-rule:evenodd;}.d{fill:#447ce1;}.e{fill:#fff;}.f{fill:#76a2f2;}</style><clipPath id="a"><path class="a" d="M0-229.461H37.273v50H0Z" transform="translate(0 229.461)"/></clipPath></defs><g transform="translate(-710 -3278)"><g transform="translate(710 3507.461)"><g class="b" transform="translate(0 -229.461)"><g transform="translate(0 0)"><path class="c" d="M-15.574-112.86c0-2.063-.05-4.127.015-6.188a11.615,11.615,0,0,0-1.1-4.954,70.467,70.467,0,0,1-2.679-6.616,12.48,12.48,0,0,1,.723-9.26c1.75-3.67,4.238-4.943,8.231-4.242,2.207.387,4.4.867,6.615,1.186,3.481.5,6.876-.185,10.258-.918.625-.136,1.255-.263,1.89-.34,3.674-.447,5.884.707,7.554,4.032a12.828,12.828,0,0,1,.665,10.262c-.682,1.979-1.576,3.888-2.435,5.8a12.07,12.07,0,0,0-1.107,5.588c.182,4.124.452,8.264.259,12.377A61.607,61.607,0,0,1,11.805-97,2.886,2.886,0,0,1,9.839-94.42a2.512,2.512,0,0,1-3.263-1.846A59.671,59.671,0,0,1,4.8-102.4c-.626-2.517-1.052-5.088-1.757-7.58a9.342,9.342,0,0,0-1.7-3.159,3.288,3.288,0,0,0-5.267-.012,12.241,12.241,0,0,0-2.4,5.633c-.648,2.915-1.217,5.849-1.9,8.756A14.8,14.8,0,0,1-9.356-95.78a2.411,2.411,0,0,1-2.4,1.451,2.157,2.157,0,0,1-2.207-1.683,54.313,54.313,0,0,1-1.689-7.9c-.29-2.956-.066-5.963-.066-8.948Z" transform="translate(19.913 144.304)"/></g><g transform="translate(9.81 5.68)"><path class="d" d="M-9.69,0a2.7,2.7,0,0,1,2.7,2.7,2.7,2.7,0,0,1-2.7,2.7,2.7,2.7,0,0,1-2.7-2.7A2.7,2.7,0,0,1-9.69,0" transform="translate(12.39)"/></g><g transform="translate(22.41 5.68)"><path class="d" d="M-9.692,0a2.7,2.7,0,0,1,2.7,2.7,2.7,2.7,0,0,1-2.7,2.7,2.7,2.7,0,0,1-2.7-2.7A2.7,2.7,0,0,1-9.692,0" transform="translate(12.392)"/></g><g transform="translate(7.667 14.952)"><path class="e" d="M-40-32.311a12.644,12.644,0,0,1-10.9-6.3,1.8,1.8,0,0,1,.655-2.459,1.8,1.8,0,0,1,2.461.655A9.029,9.029,0,0,0-40-35.911a9.025,9.025,0,0,0,7.785-4.5,1.791,1.791,0,0,1,2.458-.655,1.8,1.8,0,0,1,.655,2.459,12.634,12.634,0,0,1-10.9,6.3" transform="translate(51.14 41.313)"/></g></g></g><path class="f" d="M-40.054-18.9a5.484,5.484,0,0,1-5.477-5.477.743.743,0,0,0-.743-.743.743.743,0,0,0-.743.743A5.483,5.483,0,0,1-52.494-18.9a.743.743,0,0,0-.743.743.743.743,0,0,0,.743.743,5.483,5.483,0,0,1,5.477,5.477.743.743,0,0,0,.743.743.743.743,0,0,0,.743-.743,5.483,5.483,0,0,1,5.477-5.477.743.743,0,0,0,.743-.743.743.743,0,0,0-.743-.743" transform="translate(799.607 3321.119)"/></g></svg>