<svg xmlns="http://www.w3.org/2000/svg" width="38.338" height="50" viewBox="0 0 38.338 50"><defs><style>.a{fill:#76a2f2;}.b,.c{fill:#afccf4;}.c{fill-rule:evenodd;}.d{fill:none;}</style></defs><g transform="translate(-746 -1664.083)"><path class="a" d="M-46.354-107.843l2.768-3.819a2.714,2.714,0,0,0,.517-1.593V-139H-59.745v25.742a2.716,2.716,0,0,0,.517,1.593l2.768,3.819a2.714,2.714,0,0,0,2.2,1.122h5.71a2.714,2.714,0,0,0,2.2-1.122" transform="translate(816.577 1820.804)"/><path class="b" d="M-71.723-23.811l-18.925-2.717A2.091,2.091,0,0,1-92.421-28.9a2.091,2.091,0,0,1,2.367-1.773l18.925,2.717a2.092,2.092,0,0,1,1.773,2.368,2.091,2.091,0,0,1-2.367,1.772" transform="translate(846.058 1733.443)"/><path class="b" d="M-71.723-23.811l-18.925-2.717A2.091,2.091,0,0,1-92.421-28.9a2.091,2.091,0,0,1,2.367-1.773l18.925,2.717a2.091,2.091,0,0,1,1.773,2.367,2.091,2.091,0,0,1-2.367,1.772" transform="translate(846.058 1724.185)"/><path class="c" d="M-11.572-72.289c.224.528.427,1.058.6,1.594a2.5,2.5,0,0,0,2.38,1.748H17.117A2.473,2.473,0,0,0,19.5-70.687a13.788,13.788,0,0,1,.635-1.7c.883-1.968,1.8-3.932,2.5-5.967a13.2,13.2,0,0,0-.684-10.555c-1.718-3.42-3.99-4.608-7.77-4.148-.654.08-1.3.21-1.944.35-3.479.754-6.971,1.459-10.551.944-2.279-.328-4.534-.822-6.8-1.22-4.106-.721-6.666.589-8.466,4.363a12.836,12.836,0,0,0-.744,9.524,72.539,72.539,0,0,0,2.755,6.805" transform="translate(760.915 1757.254)"/><path class="d" d="M0-223.083H38.338v50H0Z" transform="translate(746 1887.166)"/></g></svg>