<svg xmlns="http://www.w3.org/2000/svg" width="50.181" height="50" viewBox="0 0 50.181 50"><defs><style>.a{fill:#afccf4;fill-rule:evenodd;}.b{fill:#447ce1;}.c{fill:#fff;}</style></defs><g transform="translate(-710 -3040.461)"><g transform="translate(722.908 3040.461)"><path class="a" d="M-15.574-112.86c0-2.063-.05-4.127.015-6.188a11.617,11.617,0,0,0-1.1-4.954,70.463,70.463,0,0,1-2.679-6.616,12.48,12.48,0,0,1,.723-9.26c1.75-3.67,4.238-4.943,8.231-4.242,2.207.387,4.4.867,6.615,1.186,3.481.5,6.876-.185,10.258-.918.625-.136,1.255-.263,1.89-.34,3.674-.447,5.884.707,7.554,4.032a12.828,12.828,0,0,1,.665,10.262c-.682,1.979-1.576,3.888-2.435,5.8a12.069,12.069,0,0,0-1.107,5.588c.182,4.124.452,8.264.259,12.377A61.607,61.607,0,0,1,11.805-97,2.886,2.886,0,0,1,9.839-94.42a2.512,2.512,0,0,1-3.263-1.846A59.651,59.651,0,0,1,4.8-102.4c-.626-2.517-1.052-5.088-1.757-7.58a9.343,9.343,0,0,0-1.7-3.159,3.288,3.288,0,0,0-5.267-.012,12.243,12.243,0,0,0-2.4,5.633c-.648,2.915-1.217,5.849-1.9,8.756a14.8,14.8,0,0,1-1.127,2.984,2.411,2.411,0,0,1-2.4,1.451,2.157,2.157,0,0,1-2.207-1.683,54.3,54.3,0,0,1-1.689-7.9c-.29-2.956-.066-5.963-.066-8.948Z" transform="translate(19.913 144.305)"/></g><g transform="translate(710 3049.195)"><path class="b" d="M-100.109-52.4a4.14,4.14,0,0,1-4.14,4.14H-123.86A4.14,4.14,0,0,1-128-52.4V-62.86A4.14,4.14,0,0,1-123.86-67h19.611a4.14,4.14,0,0,1,4.14,4.14Z" transform="translate(128 67)"/></g><g transform="translate(714.793 3054.425)"><path class="c" d="M-61-10.949H-76.475A1.525,1.525,0,0,1-78-12.475,1.525,1.525,0,0,1-76.475-14H-61a1.525,1.525,0,0,1,1.525,1.525A1.525,1.525,0,0,1-61-10.949" transform="translate(78 14)"/></g><g transform="translate(714.793 3060.309)"><path class="c" d="M-47.708-10.949H-59.475A1.525,1.525,0,0,1-61-12.475,1.525,1.525,0,0,1-59.475-14h11.767a1.525,1.525,0,0,1,1.525,1.525,1.525,1.525,0,0,1-1.525,1.525" transform="translate(61 14)"/></g><g transform="translate(714.576 3066.409)"><path class="b" d="M0,0V7.409L7.59,0Z"/></g></g></svg>