<svg xmlns="http://www.w3.org/2000/svg" width="50" height="50" viewBox="0 0 50 50"><defs><style>.a,.e{fill:none;}.a{stroke:#afccf4;stroke-width:4px;}.b{fill:#afccf4;fill-rule:evenodd;}.c{fill:#4e79c7;}.d{stroke:none;}</style></defs><g transform="translate(-950 -3278)"><g class="a" transform="translate(950 3278)"><rect class="d" width="50" height="50" rx="10"/><rect class="e" x="2" y="2" width="46" height="46" rx="8"/></g><path class="b" d="M-6.43-46.6c0-.83-.02-1.661.006-2.491a4.67,4.67,0,0,0-.445-1.994,28.371,28.371,0,0,1-1.078-2.663,5.023,5.023,0,0,1,.291-3.727,2.712,2.712,0,0,1,3.312-1.707c.889.156,1.77.349,2.662.477a11.6,11.6,0,0,0,4.128-.369c.252-.055.505-.106.761-.137a2.625,2.625,0,0,1,3.04,1.623,5.163,5.163,0,0,1,.267,4.13c-.274.8-.634,1.565-.98,2.334a4.861,4.861,0,0,0-.445,2.249c.073,1.66.182,3.326.1,4.982a24.78,24.78,0,0,1-.606,3.676A1.162,1.162,0,0,1,3.8-39.18a1.011,1.011,0,0,1-1.313-.743,23.952,23.952,0,0,1-.713-2.469c-.252-1.013-.424-2.047-.707-3.051a3.758,3.758,0,0,0-.685-1.271,1.323,1.323,0,0,0-2.119,0,4.925,4.925,0,0,0-.967,2.267c-.261,1.173-.49,2.354-.767,3.524a5.949,5.949,0,0,1-.453,1.2.971.971,0,0,1-.968.584.868.868,0,0,1-.888-.677A21.9,21.9,0,0,1-6.463-43c-.117-1.189-.027-2.4-.027-3.6Z" transform="translate(967.176 3346.145)"/><path class="c" d="M0,0H42a0,0,0,0,1,0,0V7a6,6,0,0,1-6,6H6A6,6,0,0,1,0,7V0A0,0,0,0,1,0,0Z" transform="translate(954 3311)"/><rect class="c" width="15" height="3" rx="1.5" transform="translate(976 3295)"/><rect class="c" width="9" height="3" rx="1.5" transform="translate(976 3300)"/></g></svg>