<svg xmlns="http://www.w3.org/2000/svg" xmlns:xlink="http://www.w3.org/1999/xlink" width="52" height="52" viewBox="0 0 52 52"><defs><style>.a{fill:none;}.b{fill:#afccf4;}.c{clip-path:url(#a);}.d{fill:#447ce1;}.e{fill:#fff;fill-rule:evenodd;}</style><clipPath id="a"><path class="a" d="M0-206.26H52v52H0Z" transform="translate(0 206.26)"/></clipPath></defs><g transform="translate(-964 -2969.26)"><g transform="translate(964 2969.26)"><g transform="translate(0 0)"><path class="b" d="M-78.19,0-84.12,6.136l-8.272-1.924-1.7,8.4-7.988,2.9,3.062,8-5.168,6.8,6.855,5.056-.707,8.545,8.473.509L-85.59,52l7.4-4.2,7.4,4.2,3.978-7.575,8.473-.509-.707-8.545,6.855-5.056-5.168-6.8,3.062-8-7.988-2.9-1.7-8.4-8.272,1.924Z" transform="translate(104.19)"/></g><g class="c" transform="translate(0 0)"><g transform="translate(9.447 9.277)"><path class="d" d="M-99.56-49.61a16.638,16.638,0,0,1-16.553,16.723A16.638,16.638,0,0,1-132.666-49.61a16.638,16.638,0,0,1,16.553-16.723A16.638,16.638,0,0,1-99.56-49.61" transform="translate(132.666 66.333)"/></g><g transform="translate(17.236 14.753)"><path class="e" d="M-6.136-44.317c0-.98-.023-1.961.007-2.94a5.559,5.559,0,0,0-.52-2.353,33.7,33.7,0,0,1-1.259-3.144,5.985,5.985,0,0,1,.34-4.4A3.162,3.162,0,0,1-3.7-59.168c1.038.184,2.068.412,3.111.563a13.421,13.421,0,0,0,4.824-.436c.294-.065.59-.125.889-.162a3.061,3.061,0,0,1,3.552,1.916,6.152,6.152,0,0,1,.312,4.875c-.32.94-.741,1.847-1.145,2.756A5.791,5.791,0,0,0,7.326-47c.086,1.96.213,3.926.122,5.88a29.517,29.517,0,0,1-.708,4.34,1.369,1.369,0,0,1-.925,1.224,1.179,1.179,0,0,1-1.534-.877,28.476,28.476,0,0,1-.833-2.915c-.294-1.2-.5-2.417-.826-3.6a4.451,4.451,0,0,0-.8-1.5,1.537,1.537,0,0,0-2.476-.006,5.845,5.845,0,0,0-1.13,2.676c-.305,1.385-.573,2.779-.9,4.16a7.07,7.07,0,0,1-.53,1.418,1.134,1.134,0,0,1-1.131.689,1.017,1.017,0,0,1-1.038-.8,26.084,26.084,0,0,1-.794-3.753c-.136-1.4-.031-2.833-.031-4.251Z" transform="translate(8.176 59.255)"/></g></g></g></g></svg>