<svg xmlns="http://www.w3.org/2000/svg" width="30.929" height="37.932" viewBox="0 0 30.929 37.932"><defs><style>.a{fill:#4e79c7;}</style></defs><path class="a" d="M129.52,0H102.381A1.9,1.9,0,0,0,100.5,1.937V22.381a15.465,15.465,0,0,0,30.929.277V1.937A1.919,1.919,0,0,0,129.52,0ZM114.111,8.244a1.961,1.961,0,0,1,2.02-1.937h6.363a1.854,1.854,0,0,1,0,3.707h-4.675V20.2h0a1.854,1.854,0,1,1-3.707,0V8.244Zm10.623,18.535a10.332,10.332,0,0,1-17.539,0,1.857,1.857,0,1,1,3.1-2.047,6.616,6.616,0,0,0,11.343,0,1.857,1.857,0,1,1,3.1,2.047Z" transform="translate(-100.5)"/></svg>