<svg xmlns="http://www.w3.org/2000/svg" width="34.996" height="34.996" viewBox="0 0 34.996 34.996"><defs><style>.a,.d{fill:none;}.a{stroke:#afccf4;stroke-width:1.5px;}.b{fill:#afccf4;}.c{stroke:none;}</style></defs><g transform="translate(-1135.25 -286.465)"><g class="a" transform="translate(1135.25 286.465)"><circle class="c" cx="17.498" cy="17.498" r="17.498"/><circle class="d" cx="17.498" cy="17.498" r="16.748"/></g><g class="a" transform="translate(1144 295.214)"><rect class="c" width="17.5" height="17.498" rx="3"/><rect class="d" x="0.75" y="0.75" width="16" height="15.998" rx="2.25"/></g><path class="b" d="M-919.957,5691.956H-924V5687a3,3,0,0,1,3-3h11.5a3,3,0,0,1,3,3v4.953h-4.043a4.766,4.766,0,0,0-1.608-2.834,4.775,4.775,0,0,0-3.1-1.143,4.775,4.775,0,0,0-3.1,1.143,4.769,4.769,0,0,0-1.608,2.834Zm9.525-4.869a1.162,1.162,0,0,0-1.161,1.16,1.176,1.176,0,0,0,1.161,1.16,1.176,1.176,0,0,0,1.16-1.16A1.161,1.161,0,0,0-910.431,5687.087Z" transform="translate(2068 -5388.787)"/><g class="a" transform="translate(1147.977 299.191)"><ellipse class="c" cx="4.773" cy="4.772" rx="4.773" ry="4.772"/><ellipse class="d" cx="4.773" cy="4.772" rx="4.023" ry="4.022"/></g></g></svg>