<svg xmlns="http://www.w3.org/2000/svg" viewBox="0 0 35 35"><defs><style>.a,.d{fill:none;}.a{stroke:#afccf4;stroke-width:1.5px;}.b{fill:#afccf4;fill-rule:evenodd;}.c{stroke:none;}</style></defs><g transform="translate(-328.125 -5086.5)"><g class="a" transform="translate(328.125 5086.5)"><circle class="c" cx="17.5" cy="17.5" r="17.5"/><circle class="d" cx="17.5" cy="17.5" r="16.75"/></g><path class="b" d="M9.42,24.681H10.57a.972.972,0,0,0,.525-.229.842.842,0,0,0,.158-.505s-.023-1.544.694-1.771,1.614,1.492,2.575,2.152a1.824,1.824,0,0,0,1.28.39l2.571-.036s1.345-.083.707-1.14a8.593,8.593,0,0,0-1.912-2.212c-1.612-1.5-1.4-1.254.546-3.842,1.182-1.576,1.655-2.538,1.508-2.95-.141-.393-1.011-.289-1.011-.289l-2.894.018a.658.658,0,0,0-.374.066.807.807,0,0,0-.255.31A16.8,16.8,0,0,1,13.619,16.9c-1.289,2.189-1.8,2.3-2.015,2.168-.49-.317-.368-1.272-.368-1.951,0-2.121.322-3.005-.627-3.234a4.941,4.941,0,0,0-1.351-.134,6.244,6.244,0,0,0-2.4.245c-.329.161-.583.521-.429.541a1.3,1.3,0,0,1,.854.43,2.8,2.8,0,0,1,.286,1.31s.171,2.5-.4,2.807c-.39.213-.925-.222-2.075-2.207a18.464,18.464,0,0,1-1.033-2.141.862.862,0,0,0-.239-.322,1.2,1.2,0,0,0-.445-.18l-2.751.018s-.413.011-.565.191c-.135.16-.011.49-.011.49s2.153,5.038,4.592,7.577A6.6,6.6,0,0,0,9.42,24.681Z" transform="translate(335.998 5085.589)"/></g></svg>